<?xml version="1.0" encoding="UTF-8" standalone="no" ?>
<!DOCTYPE svg PUBLIC "-//W3C//DTD SVG 1.1//EN" "http://www.w3.org/Graphics/SVG/1.1/DTD/svg11.dtd">
<svg xmlns="http://www.w3.org/2000/svg" xmlns:xlink="http://www.w3.org/1999/xlink" version="1.1" width="1080" height="1080" viewBox="0 0 1080 1080" xml:space="preserve">
<desc>Created with Fabric.js 5.2.4</desc>
<defs>
</defs>
<g transform="matrix(1 0 0 1 540 540)" id="4e3d7ed4-44dd-4123-ae13-6907b6289a73"  >
<rect style="stroke: none; stroke-width: 1; stroke-dasharray: none; stroke-linecap: butt; stroke-dashoffset: 0; stroke-linejoin: miter; stroke-miterlimit: 4; fill: rgb(255,255,255); fill-rule: nonzero; opacity: 1;" vector-effect="non-scaling-stroke"  x="-540" y="-540" rx="0" ry="0" width="1080" height="1080" />
</g>
<g transform="matrix(Infinity NaN NaN Infinity 0 0)" id="afbfc7d4-62a0-4a41-aba1-4401e6dbaab0"  >
</g>
<g transform="matrix(1 0 0 1 540 540)"  >
<path style="stroke: none; stroke-width: 1; stroke-dasharray: none; stroke-linecap: butt; stroke-dashoffset: 0; stroke-linejoin: miter; stroke-miterlimit: 4; fill: rgb(255,255,255); fill-rule: nonzero; opacity: 1;" vector-effect="non-scaling-stroke"  transform=" translate(-486, -357)" d="M 605 713 C 403.333405 713 202.166794 713 1.000135 713 C 1.00009 475.666809 1.00009 238.333588 1.000045 1.000294 C 324.333099 1.000196 647.666199 1.000196 970.999512 1.000098 C 970.999634 238.333023 970.999634 475.666046 970.999817 712.999512 C 849.166687 713 727.333313 713 605 713 M 432.140869 373.295502 C 447.949951 382.473022 463.782562 391.610504 479.543152 400.870483 C 481.953674 402.286804 483.841339 402.413422 486.347229 400.951263 C 512.757629 385.541168 539.215881 370.21225 565.737549 354.994385 C 568.266541 353.543274 569.109436 351.961212 569.070129 349.118042 C 568.910889 337.625275 568.885803 326.127014 569.083435 314.635468 C 569.135803 311.591705 568.243103 309.928406 565.563599 308.406738 C 549.088989 299.051117 532.728271 289.494934 516.331421 280.002502 C 497.213074 268.934479 478.096558 257.863342 458.483521 246.5065 C 465.697601 242.399536 472.548767 238.711792 479.159912 234.634735 C 481.951691 232.913071 483.959747 232.960831 486.810303 234.619141 C 512.522705 249.577316 538.341431 264.352722 564.130371 279.179291 C 565.593384 280.020386 567.069031 280.839386 569.004089 281.931213 C 569.004089 273.006592 569.172058 265.007721 568.869263 257.026703 C 568.804871 255.330063 567.435913 252.99704 565.974487 252.141052 C 539.44574 236.602356 512.796753 221.26918 486.224121 205.804871 C 484.002716 204.512115 482.413666 204.256805 479.993347 205.671188 C 453.447968 221.183868 426.835968 236.583801 400.141846 251.839005 C 397.499512 253.34906 396.920868 255.036728 396.947784 257.760376 C 397.06134 269.254272 397.116211 280.752045 396.916321 292.243591 C 396.862244 295.351959 397.960693 296.882111 400.596924 298.392151 C 434.486176 317.803864 468.298126 337.350494 502.126434 356.868622 C 503.751038 357.806 505.345459 358.795715 507.433807 360.049042 C 500.19516 364.269043 493.640991 367.862274 487.343506 371.859833 C 484.312256 373.784058 482.053406 373.844055 478.865601 371.973389 C 453.352142 357.001953 427.712311 342.24585 402.10434 327.435638 C 400.58429 326.556458 399.005463 325.778839 396.99585 324.710388 C 396.99585 333.314117 397.147614 341.28476 396.91684 349.244354 C 396.83139 352.191986 397.900513 353.660675 400.378632 355.049561 C 410.815735 360.899109 421.126617 366.973816 432.140869 373.295502 M 519.278259 482.670746 C 522.528992 478.209961 523.10498 473.250305 522.17749 467.940979 C 521.198669 462.338104 517.340576 459.417603 511.934784 457.410706 C 519.059937 453.525299 521.297913 447.794708 519.939453 440.700439 C 518.625305 433.837616 513.657532 429.4263 507.361115 428.715546 C 494.761597 427.293274 482.009277 427.224823 469.266449 426.594727 C 469.266449 430.21109 469.266449 432.5065 469.266449 434.822388 C 471.495392 435.398651 473.544861 435.928497 475.613098 436.463196 C 475.613098 451.446625 475.613098 466.200684 475.613098 481.043152 C 473.354614 481.63266 471.317505 482.164398 469.362305 482.674744 C 469.362305 485.228882 469.362305 487.472778 469.362305 489.838013 C 480.620728 489.838013 491.601257 490.061829 502.566467 489.749573 C 508.61731 489.577271 514.454285 488.042297 519.278259 482.670746 M 646.780396 464.001007 C 646.835999 466.99585 646.708191 470.007355 646.978455 472.982697 C 648.310364 487.64624 662.360352 496.800079 676.178772 486.795288 C 675.609741 490.075348 675.526733 494.227051 673.412292 496.184143 C 667.4151 501.73526 660.274353 497.763367 653.436646 496.75235 C 652.710693 499.734528 652.058777 502.412872 651.03302 506.626709 C 657.59729 507.007263 663.407532 507.291138 669.209595 507.692535 C 678.55072 508.338806 687.059631 501.886566 688.088989 492.518433 C 688.831543 485.760315 688.593506 478.888367 688.678162 472.065765 C 688.760193 465.449249 688.695923 458.830933 688.695923 452.40033 C 690.821838 451.766785 692.368652 451.305847 693.738281 450.897675 C 693.738281 448.269806 693.738281 446.023346 693.738281 443.459534 C 690.125671 443.459534 686.80719 443.575897 683.500549 443.427917 C 679.948303 443.268921 676.548523 443.092529 676.684082 448.444061 C 667.403687 439.701172 656.388306 440.758881 650.614441 450.901825 C 648.553406 454.522308 648.056335 459.03302 646.780396 464.001007 M 620.58783 445.014618 C 611.478088 440.090759 602.499512 442.554993 597.908752 451.799133 C 593.147034 461.38739 593.114685 471.466309 597.251343 481.247894 C 600.682495 489.361359 609.762634 493.068939 617.610107 489.922882 C 620.113586 488.91925 622.234558 486.961456 624.565491 485.417084 C 625.003601 486.97702 625.421936 488.466675 625.793213 489.788757 C 631.454895 489.788757 636.7276 489.788757 642.034729 489.788757 C 642.034729 487.178833 642.034729 484.799774 642.034729 482.172882 C 636.827881 482.543854 636.083069 479.757904 636.293518 475.62323 C 636.597656 469.648804 636.369934 463.647369 636.369812 457.65744 C 636.369568 446.204437 636.369751 434.751434 636.369751 423.323364 C 629.695923 423.323364 623.458069 423.323364 617.415955 423.323364 C 617.415955 425.927612 617.415955 428.186859 617.415955 430.361969 C 619.762268 430.971008 621.786621 431.49646 623.528442 431.948578 C 623.528442 437.287689 623.528442 442.145569 623.528442 447.481476 C 622.442383 446.565338 621.823059 446.042877 620.58783 445.014618 M 254.298859 490.850861 C 256.770721 490.531219 259.280823 490.387238 261.707306 489.859161 C 269.147186 488.240021 274.723724 482.685089 275.813751 476.023041 C 276.99411 468.808777 273.686096 462.116455 266.537476 458.223083 C 263.211731 456.411743 259.48999 455.338196 255.986984 453.838562 C 252.339844 452.277252 248.439163 451.053284 245.193008 448.872528 C 240.801239 445.922058 241.397079 438.959045 246.385941 437.711731 C 250.964996 436.566833 256.248352 436.987335 260.906128 438.072083 C 262.58847 438.463898 263.360657 442.78476 264.535767 445.31842 C 264.806183 445.90152 265.025421 446.508392 265.159851 446.838409 C 268.356232 446.838409 271.264374 446.838409 274.256683 446.838409 C 274.256683 443.82608 273.966766 441.12384 274.322144 438.509277 C 274.90918 434.189941 273.11554 431.835358 269.275665 430.061157 C 261.23053 426.343903 252.890091 425.618591 244.406967 427.368683 C 236.343277 429.032288 230.594437 435.232086 229.950012 442.023071 C 229.186203 450.07196 232.695862 455.835083 240.970184 459.696869 C 243.817932 461.026001 246.89241 461.860199 249.804214 463.063507 C 253.315475 464.514526 257.199799 465.568787 260.079773 467.856079 C 261.87561 469.282288 263.118988 472.830414 262.752502 475.13028 C 262.421661 477.206818 259.634033 480.366028 257.809998 480.450195 C 252.632416 480.689087 247.082336 480.426544 242.327042 478.638153 C 240.335754 477.889252 239.987366 472.791138 238.864624 469.680298 C 238.765839 469.406555 238.462646 469.206573 238.278931 468.999939 C 235.270081 468.999939 232.297546 468.999939 229.010559 468.999939 C 229.010559 472.822266 229.235428 476.482788 228.942657 480.10141 C 228.687515 483.255188 229.762833 485.437256 232.705292 486.171661 C 239.558746 487.882202 246.482956 489.309265 254.298859 490.850861 M 388.195587 480.98172 C 386.498291 481.535858 384.800995 482.089996 383.129089 482.635834 C 383.129089 485.128754 383.129089 487.504639 383.129089 489.840149 C 390.944763 489.840149 398.397583 489.840149 405.987 489.840149 C 405.987 487.256989 405.987 484.848969 405.987 482.233398 C 401.626953 482.338257 400.962341 479.932434 401.133392 476.400482 C 401.390656 471.086884 401.177094 465.751556 401.209534 460.42572 C 401.239624 455.48288 404.193176 452.454346 409.133148 452.219635 C 413.625549 452.006195 416.187744 454.310333 416.565216 459.637665 C 416.905579 464.441223 416.64859 469.284546 416.75235 474.108215 C 416.842133 478.283936 417.688232 482.822449 411.381042 482.571503 C 411.381042 485.294373 411.381042 487.407288 411.381042 489.761658 C 419.321167 489.761658 427.064148 489.761658 434.895752 489.761658 C 434.895752 487.266418 434.895752 484.869202 434.895752 482.159821 C 429.950104 482.547028 428.851593 480.14035 429.084167 475.810211 C 429.422607 469.509003 429.314087 463.153656 428.923035 456.850769 C 428.385925 448.194611 423.665039 443.449524 415.812134 442.599426 C 409.777405 441.946136 405.333801 444.744324 401.331665 448.949066 C 400.820618 446.92868 400.394562 445.244202 400.01886 443.75885 C 393.820648 443.75885 388.056061 443.75885 382.244049 443.75885 C 382.244049 446.328308 382.244049 448.609222 382.244049 450.839813 C 384.516144 451.447449 386.569183 451.99649 388.717529 452.571045 C 388.717529 461.918365 388.717529 471.064545 388.195587 480.98172 M 353.423065 490.349243 C 361.628601 491.784607 369.234436 490.537872 376.285156 485.413513 C 375.206726 482.966064 374.220306 480.727386 373.257538 478.542328 C 356.04129 482.487061 351.500977 480.976715 350.301147 470.477173 C 359.239716 470.477173 368.126556 470.477173 377.102417 470.477173 C 377.102417 466.548798 377.314301 463.22348 377.058868 459.934448 C 376.506561 452.823425 373.621521 446.859924 366.652954 444.211823 C 359.51413 441.498993 352.29715 441.447754 345.866577 446.519043 C 337.39151 453.202667 335.968079 462.477875 337.313721 472.242279 C 338.545319 481.178864 343.758667 487.392914 353.423065 490.349243 M 729.253723 445.070221 C 718.003052 440.031158 707.767883 442.51535 701.515198 451.802734 C 695.212646 461.164124 696.65094 477.504028 704.443176 485.06604 C 712.408508 492.796082 726.326782 492.953156 736.725281 485.300537 C 735.657593 482.985321 734.569824 480.626556 733.481995 478.267609 C 718.196106 483.10611 711.52832 480.94873 711.134033 470.445892 C 720.02771 470.445892 728.916199 470.445892 738.111877 470.445892 C 737.354858 460.991852 738.80835 451.549927 729.253723 445.070221 M 327.536346 423.995911 C 321.127869 423.534698 314.719391 423.073486 308.542084 422.628937 C 308.542084 426.019775 308.542084 428.272003 308.542084 430.461121 C 310.837738 430.986633 312.763062 431.427338 314.811523 431.89624 C 314.811523 448.354614 314.811523 464.621063 314.811523 481.039581 C 312.874512 481.577728 311.012634 482.095032 309.163574 482.608734 C 309.163574 485.135864 309.163574 487.39209 309.163574 490.007141 C 316.326965 490.007141 323.289612 490.170135 330.230286 489.85257 C 331.439331 489.797272 333.430603 487.760559 333.492523 486.558197 C 333.569214 485.068176 332.182831 482.323029 331.128845 482.168854 C 327.517761 481.640686 327.590057 479.496399 327.597809 476.832428 C 327.648224 459.529999 327.617981 442.227264 327.536346 423.995911 M 463.79425 450.084351 C 463.79425 447.999176 463.79425 445.914001 463.79425 443.690887 C 460.548645 443.512421 457.969208 443.370575 454.917206 443.202789 C 454.917206 439.277161 454.917206 435.709015 454.917206 432.168457 C 450.627197 432.168457 446.841156 432.168457 442.529907 432.168457 C 442.529907 435.910065 442.529907 439.484558 442.529907 443.070953 C 440.118591 443.391205 438.220825 443.64325 436.457458 443.877441 C 436.457458 446.829773 436.457458 449.395447 436.457458 451.966797 C 438.568787 452.154419 440.359436 452.313538 442.44693 452.499054 C 442.527191 454.129669 442.645874 455.593109 442.663452 457.057709 C 442.751434 464.382935 442.594147 471.719025 442.947052 479.030853 C 443.280792 485.944763 446.919861 489.819885 453.732269 490.503937 C 457.24115 490.856293 460.847778 490.235321 464.747894 490.036926 C 464.335022 486.442841 464.022339 483.720856 463.702545 480.93692 C 459.933929 480.74054 455.332275 482.124237 455.169189 476.460663 C 454.940277 468.511993 455.111328 460.551849 455.111328 452.960419 C 458.293396 452.219421 461.026886 451.582855 463.79425 450.084351 M 543.935547 443.461945 C 538.650085 443.461945 533.364624 443.461945 527.7995 443.461945 C 527.7995 446.142456 527.7995 448.401093 527.7995 450.830811 C 529.809265 451.374573 531.835205 451.922699 533.886108 452.47757 C 533.886108 462.098969 533.886108 471.531494 533.886108 481.038818 C 531.872559 481.649048 530.027405 482.208252 528.407837 482.699066 C 528.407837 485.323303 528.407837 487.558929 528.407837 489.766846 C 536.661926 489.766846 544.583313 489.766846 552.635986 489.766846 C 552.635986 487.264313 552.635986 485.01709 552.635986 482.712738 C 550.614929 482.08548 548.790649 481.519257 546.848755 480.916565 C 546.848755 474.625214 546.843445 468.64679 546.850159 462.668335 C 546.857239 456.376343 548.799805 454.531006 555.262939 454.631927 C 556.749512 454.655121 558.236755 454.635315 560.198547 454.635315 C 560.631226 450.896729 561.063599 447.160217 561.483887 443.528656 C 555.165222 440.914764 550.717102 443.536011 546.985291 448.207062 C 546.09198 446.273712 545.460388 444.906677 543.935547 443.461945 M 286.924408 465.51239 C 286.924408 470.644073 286.924408 475.775726 286.924408 480.966095 C 284.748016 481.594971 282.896759 482.129883 281.118042 482.64386 C 281.118042 485.196472 281.118042 487.445129 281.118042 489.752563 C 289.263611 489.752563 297.158508 489.752563 305.184814 489.752563 C 305.184814 487.226227 305.184814 484.957123 305.184814 482.378204 C 299.688904 482.629486 299.156586 479.470734 299.281219 475.04895 C 299.574615 464.637177 299.375275 454.211548 299.375275 443.719482 C 292.637146 443.719482 286.540497 443.719482 280.279846 443.719482 C 280.279846 446.246277 280.279846 448.522278 280.279846 450.828766 C 282.506805 451.392944 284.560974 451.9133 286.924438 452.512054 C 286.924438 456.585693 286.924438 460.55423 286.924408 465.51239 M 584.084351 463.498718 C 584.084351 456.920624 584.084351 450.34256 584.084351 443.800354 C 577.319275 443.800354 571.254272 443.800354 565.200928 443.800354 C 565.200928 446.399353 565.200928 448.663391 565.200928 450.886658 C 567.365112 451.447723 569.271545 451.941956 571.606812 452.547363 C 571.606812 460.044128 571.409668 467.510651 571.68219 474.960022 C 571.840454 479.284546 571.511292 482.681274 565.846924 482.331055 C 565.846924 485.020905 565.846924 487.419708 565.846924 489.719788 C 574.106323 489.719788 582.043335 489.719788 589.841125 489.719788 C 589.841125 487.142639 589.841125 484.856964 589.841125 482.554504 C 587.873962 482.030334 586.138306 481.567871 584.0849 481.020721 C 584.0849 475.437866 584.0849 469.967804 584.084351 463.498718 M 286.336456 430.188751 C 287.288208 431.321075 288.127045 433.281738 289.212921 433.429749 C 292.417114 433.866455 295.719147 433.585754 299.194611 433.585754 C 299.194611 429.793213 299.194611 426.552155 299.194611 423.211182 C 294.906525 423.211182 290.843536 423.211182 286.336212 423.211182 C 286.336212 425.394135 286.336212 427.349213 286.336456 430.188751 M 584.1073 427.463165 C 584.024902 426.040436 583.942505 424.617706 583.86499 423.278595 C 579.430176 423.278595 575.3703 423.278595 571.392578 423.278595 C 571.392578 426.802429 571.392578 430.012939 571.392578 433.209595 C 575.780029 433.209595 579.822449 433.209595 584.106445 433.209595 C 584.106445 431.370483 584.106445 429.887695 584.1073 427.463165 z" stroke-linecap="round" />
</g>
<g transform="matrix(4.24 0 0 4.24 540 540)"  >
<path style="stroke: none; stroke-width: 1; stroke-dasharray: none; stroke-linecap: butt; stroke-dashoffset: 0; stroke-linejoin: miter; stroke-miterlimit: 4; fill: rgb(36,32,33); fill-rule: nonzero; opacity: 1;" vector-effect="non-scaling-stroke"  transform=" translate(-483, -303.35)" d="M 431.812286 373.130829 C 421.126617 366.973816 410.815735 360.899109 400.378632 355.049561 C 397.900513 353.660675 396.83139 352.191986 396.91684 349.244354 C 397.147614 341.28476 396.99585 333.314117 396.99585 324.710388 C 399.005463 325.778839 400.58429 326.556458 402.10434 327.435638 C 427.712311 342.24585 453.352142 357.001953 478.865601 371.973389 C 482.053406 373.844055 484.312256 373.784058 487.343506 371.859833 C 493.640991 367.862274 500.19516 364.269043 507.433807 360.049042 C 505.345459 358.795715 503.751038 357.806 502.126434 356.868622 C 468.298126 337.350494 434.486176 317.803864 400.596924 298.392151 C 397.960693 296.882111 396.862244 295.351959 396.916321 292.243591 C 397.116211 280.752045 397.06134 269.254272 396.947784 257.760376 C 396.920868 255.036728 397.499512 253.34906 400.141846 251.839005 C 426.835968 236.583801 453.447968 221.183868 479.993347 205.671188 C 482.413666 204.256805 484.002716 204.512115 486.224121 205.804871 C 512.796753 221.26918 539.44574 236.602356 565.974487 252.141052 C 567.435913 252.99704 568.804871 255.330063 568.869263 257.026703 C 569.172058 265.007721 569.004089 273.006592 569.004089 281.931213 C 567.069031 280.839386 565.593384 280.020386 564.130371 279.179291 C 538.341431 264.352722 512.522705 249.577316 486.810303 234.619141 C 483.959747 232.960831 481.951691 232.913071 479.159912 234.634735 C 472.548767 238.711792 465.697601 242.399536 458.483521 246.5065 C 478.096558 257.863342 497.213074 268.934479 516.331421 280.002502 C 532.728271 289.494934 549.088989 299.051117 565.563599 308.406738 C 568.243103 309.928406 569.135803 311.591705 569.083435 314.635468 C 568.885803 326.127014 568.910889 337.625275 569.070129 349.118042 C 569.109436 351.961212 568.266541 353.543274 565.737549 354.994385 C 539.215881 370.21225 512.757629 385.541168 486.347229 400.951263 C 483.841339 402.413422 481.953674 402.286804 479.543152 400.870483 C 463.782562 391.610504 447.949951 382.473022 431.812286 373.130829 M 432.28244 261.699402 C 424.437042 264.676331 419.260529 269.398102 421.713776 278.682068 C 422.195953 280.506805 423.175568 282.817352 424.643463 283.67395 C 459.525299 304.029602 494.493988 324.236755 529.513855 344.354309 C 530.773926 345.078186 532.944946 345.175964 534.302124 344.618195 C 544.385315 340.474457 544.257507 340.274506 544.504028 329.380432 C 544.586914 325.717682 543.381958 323.799957 540.239746 322.001984 C 506.050812 302.439117 471.959045 282.706482 437.810822 263.072327 C 436.321014 262.215729 434.541016 261.863953 432.28244 261.699402 z" stroke-linecap="round" />
</g>
</svg>